<!-- Generated by IcoMoon.io -->
<svg version="1.1" xmlns="http://www.w3.org/2000/svg" width="100" height="100" viewBox="0 0 100 100">
<title>plus</title>
<path fill="#fff" d="M96.875 37.5h-34.375v-34.375c0-1.726-1.399-3.125-3.125-3.125h-18.75c-1.726 0-3.125 1.399-3.125 3.125v34.375h-34.375c-1.726 0-3.125 1.399-3.125 3.125v18.75c0 1.726 1.399 3.125 3.125 3.125h34.375v34.375c0 1.726 1.399 3.125 3.125 3.125h18.75c1.726 0 3.125-1.399 3.125-3.125v-34.375h34.375c1.726 0 3.125-1.399 3.125-3.125v-18.75c0-1.726-1.399-3.125-3.125-3.125z"></path>
</svg>
