<!-- Generated by IcoMoon.io -->
<svg version="1.1" xmlns="http://www.w3.org/2000/svg" width="64" height="64" viewBox="0 0 64 64">
<title>award</title>
<path fill="#e50" d="M31.253 41.984l-8.050 20.97-3.451-7.752-7.752 3.451 7.956-20.726c3.161 2.404 7.060 3.889 11.297 4.056v0zM44.148 37.929l7.956 20.726-7.752-3.451-3.451 7.752-8.050-20.97c4.237-0.167 8.136-1.651 11.297-4.056v0 0zM32.052 40v0c-9.941 0-18-8.059-18-18s8.059-18 18-18c9.941 0 18 8.059 18 18s-8.059 18-18 18zM32.052 34c6.627 0 12-5.373 12-12s-5.373-12-12-12c-6.627 0-12 5.373-12 12s5.373 12 12 12v0zM32.052 32c5.523 0 10-4.477 10-10s-4.477-10-10-10c-5.523 0-10 4.477-10 10s4.477 10 10 10v0z"></path>
</svg>
