<!-- Generated by IcoMoon.io -->
<svg version="1.1" xmlns="http://www.w3.org/2000/svg" width="80" height="80" viewBox="0 0 80 80">
<title>info</title>
<path fill="#fff" d="M40 7.5c-17.95 0-32.5 14.55-32.5 32.5s14.55 32.5 32.5 32.5 32.5-14.55 32.5-32.5-14.55-32.5-32.5-32.5zM45.098 51.958c-2.453 3.682-4.947 6.52-9.145 6.52-2.865-0.468-4.043-2.52-3.422-4.612l5.4-17.885c0.133-0.438-0.087-0.905-0.488-1.047-0.398-0.14-1.177 0.377-1.852 1.117l-3.265 3.928c-0.087-0.66-0.010-1.75-0.010-2.19 2.453-3.683 6.482-6.588 9.215-6.588 2.598 0.265 3.828 2.342 3.375 4.625l-5.438 17.973c-0.072 0.405 0.142 0.818 0.51 0.947 0.4 0.14 1.24-0.377 1.918-1.117l3.262-3.925c0.087 0.66-0.060 1.815-0.060 2.255zM44.37 28.598c-2.065 0-3.74-1.505-3.74-3.72s1.675-3.718 3.74-3.718 3.74 1.505 3.74 3.718c0 2.218-1.675 3.72-3.74 3.72z"></path>
</svg>
