<!-- Generated by IcoMoon.io -->
<svg version="1.1" xmlns="http://www.w3.org/2000/svg" width="50" height="64" viewBox="0 0 50 64">
<title>user-secret</title>
<path fill="#555" d="M20.571 54.857l3.429-16-3.429-4.571-4.571-2.286zM29.714 54.857l4.571-22.857-4.571 2.286-3.429 4.571zM35.429 18.786c-0.036-0.071-0.071-0.143-0.143-0.214-0.321-0.25-2.893-0.286-3.429-0.286-2.036 0-3.964 0.286-5.964 0.679-0.25 0.071-0.5 0.071-0.75 0.071s-0.5 0-0.75-0.071c-2-0.393-3.929-0.679-5.964-0.679-0.536 0-3.107 0.036-3.429 0.286-0.071 0.071-0.107 0.143-0.143 0.214 0.036 0.321 0.071 0.643 0.143 0.964 0.214 0.286 0.393 0.179 0.536 0.607 0.929 2.536 1.357 4.5 4.571 4.5 4.607 0 3.321-4.25 4.821-4.25h0.429c1.5 0 0.214 4.25 4.821 4.25 3.214 0 3.643-1.964 4.571-4.5 0.143-0.429 0.321-0.321 0.536-0.607 0.071-0.321 0.107-0.643 0.143-0.964zM50.286 50.179c0 5.821-3.821 9.25-9.536 9.25h-31.214c-5.714 0-9.536-3.429-9.536-9.25 0-6.464 1.143-16.25 7.786-19.464l-3.214-7.857h7.643c-0.5-1.464-0.786-3-0.786-4.571 0-0.393 0.036-0.786 0.071-1.143-1.393-0.286-6.929-1.429-6.929-3.429 0-2.107 6.071-3.25 7.5-3.536 0.75-2.679 2.536-6.75 4.357-8.857 0.714-0.821 1.607-1.321 2.714-1.321 2.143 0 3.857 2.214 6 2.214s3.857-2.214 6-2.214c1.107 0 2 0.5 2.714 1.321 1.821 2.107 3.607 6.179 4.357 8.857 1.429 0.286 7.5 1.429 7.5 3.536 0 2-5.536 3.143-6.929 3.429 0.179 1.929-0.071 3.857-0.714 5.714h7.643l-2.929 8.036c6.393 3.321 7.5 12.929 7.5 19.286z"></path>
</svg>
