<!-- Generated by IcoMoon.io -->
<svg version="1.1" xmlns="http://www.w3.org/2000/svg" width="59" height="64" viewBox="0 0 59 64">
<title>calendar-check-o</title>
<path fill="#555" d="M46.536 34.429l-18.286 18.286c-0.464 0.429-1.179 0.429-1.643 0l-10.286-10.286c-0.429-0.464-0.429-1.179 0-1.607l1.643-1.643c0.429-0.429 1.143-0.429 1.607 0l7.857 7.857 15.857-15.857c0.464-0.429 1.179-0.429 1.607 0l1.643 1.643c0.429 0.429 0.429 1.143 0 1.607zM4.571 59.429h50.286v-36.571h-50.286v36.571zM18.286 16v-10.286c0-0.643-0.5-1.143-1.143-1.143h-2.286c-0.643 0-1.143 0.5-1.143 1.143v10.286c0 0.643 0.5 1.143 1.143 1.143h2.286c0.643 0 1.143-0.5 1.143-1.143zM45.714 16v-10.286c0-0.643-0.5-1.143-1.143-1.143h-2.286c-0.643 0-1.143 0.5-1.143 1.143v10.286c0 0.643 0.5 1.143 1.143 1.143h2.286c0.643 0 1.143-0.5 1.143-1.143zM59.429 13.714v45.714c0 2.5-2.071 4.571-4.571 4.571h-50.286c-2.5 0-4.571-2.071-4.571-4.571v-45.714c0-2.5 2.071-4.571 4.571-4.571h4.571v-3.429c0-3.143 2.571-5.714 5.714-5.714h2.286c3.143 0 5.714 2.571 5.714 5.714v3.429h13.714v-3.429c0-3.143 2.571-5.714 5.714-5.714h2.286c3.143 0 5.714 2.571 5.714 5.714v3.429h4.571c2.5 0 4.571 2.071 4.571 4.571z"></path>
</svg>
