<!-- Generated by IcoMoon.io -->
<svg version="1.1" xmlns="http://www.w3.org/2000/svg" width="80" height="80" viewBox="0 0 80 80">
<title>floppy</title>
<path fill="#fff" d="M75 80h-70c-2.76 0-5-2.24-5-5v-70c0-2.76 2.24-5 5-5h60l15 15v60c0 2.76-2.24 5-5 5zM20 67.5c0 1.383 1.12 2.5 2.5 2.5h35c1.383 0 2.5-1.117 2.5-2.5v-20c0-1.383-1.117-2.5-2.5-2.5h-35c-1.38 0-2.5 1.117-2.5 2.5v20zM55 12.5c0-1.383-1.117-2.5-2.5-2.5s-2.5 1.117-2.5 2.5v7.5c0 1.383 1.117 2.5 2.5 2.5s2.5-1.117 2.5-2.5v-7.5zM70 17.5l-7.5-7.5h-2.5v17.5c0 1.383-1.117 2.5-2.5 2.5h-35c-1.38 0-2.5-1.117-2.5-2.5v-17.5h-7.5c-1.38 0-2.5 1.117-2.5 2.5v55c0 1.383 1.12 2.5 2.5 2.5h2.5v-27.5c0-1.383 1.12-2.5 2.5-2.5h45c1.383 0 2.5 1.117 2.5 2.5v27.5h2.5c1.383 0 2.5-1.117 2.5-2.5v-50z"></path>
</svg>
