<!-- Generated by IcoMoon.io -->
<svg version="1.1" xmlns="http://www.w3.org/2000/svg" width="32" height="32" viewBox="0 0 32 32">
<title>signal</title>
<path fill="#2592e9" d="M16.016 3.464c-6.96 0-12.603 5.2-12.603 11.612 0 4.021 1.625 7.068 4.207 9.032h-0.007l0.312 4.056v0.005c0 0.023 0 0.041 0.005 0.061v0.008c0.032 0.192 0.2 0.34 0.401 0.34 0.071 0 0.133-0.020 0.192-0.047l0.015-0.011 3.861-2.232c1.139 0.261 2.356 0.399 3.613 0.399 6.96 0 12.603-5.199 12.603-11.613 0-6.413-5.644-11.612-12.605-11.612l0.005 0.001zM13.853 0.96c0.7-0.087 1.415-0.139 2.14-0.139 0.507 0 1 0.027 1.492 0.069l0.076-0.819c-0.52-0.047-1.039-0.072-1.565-0.072-0.76 0-1.513 0.048-2.255 0.145l0.111 0.816 0.001-0.001zM18.916 1.085c1.22 0.22 2.38 0.581 3.48 1.060l0.336-0.756c-0.176-0.075-0.351-0.149-0.529-0.22-1.016-0.4-2.068-0.699-3.14-0.895l-0.147 0.811zM31.141 15.16c-0.020 1.22-0.207 2.408-0.54 3.54l0.787 0.233c0.356-1.204 0.555-2.472 0.575-3.775l-0.821 0.001zM8.993 2.419c1.081-0.519 2.237-0.931 3.448-1.203l-0.18-0.805c-0.841 0.188-1.668 0.439-2.471 0.759-0.396 0.156-0.781 0.327-1.156 0.508l0.359 0.741zM27.193 4.284c-0.941-0.865-1.98-1.609-3.105-2.231l-0.415 0.721c1.081 0.593 2.081 1.308 2.965 2.128l0.555-0.616v-0.003zM20.201 29.401c1.26-0.32 2.46-0.788 3.581-1.373l-0.42-0.711c-1.048 0.551-2.175 0.984-3.361 1.289l0.2 0.795zM4.903 5.34c0.84-0.851 1.796-1.6 2.84-2.233l-0.436-0.705c-0.931 0.563-1.8 1.219-2.593 1.964-0.136 0.125-0.267 0.255-0.4 0.385l0.585 0.588 0.004 0.001zM30.876 20.38l-0.757-0.315c-0.465 1.111-1.071 2.152-1.805 3.109l0.66 0.492c0.769-1.011 1.415-2.115 1.899-3.287h0.004zM27.635 5.911c0.808 0.9 1.496 1.9 2.045 2.971l0.74-0.367c-0.58-1.136-1.305-2.193-2.169-3.155l-0.62 0.551h0.004zM31.040 9.915l-0.757 0.325c0.417 1.104 0.695 2.271 0.805 3.48l0.82-0.081c-0.117-1.275-0.407-2.523-0.868-3.724zM8.515 30.465l-1.292 0.567-0.443-1.367-0.78 0.253 0.584 1.796c0.039 0.111 0.12 0.201 0.223 0.251 0.055 0.023 0.111 0.035 0.168 0.035s0.112-0.012 0.164-0.035l1.711-0.751-0.335-0.749zM13.612 28.875c-0.104-0.021-0.209-0.036-0.316-0.055l-0.62-0.105c-0.081-0.012-0.16 0-0.229 0.031l-2.601 1.137 0.361 0.739 2.46-1.071c0.167 0.028 0.333 0.055 0.495 0.079 0.091 0.023 0.185 0.035 0.279 0.051l0.172-0.805zM18.583 28.901c-0.844 0.139-1.708 0.208-2.589 0.208-0.364 0-0.7-0.020-1.029-0.051l-0.025 0.82c0.335 0.032 0.681 0.053 1.055 0.053 0.931 0 1.844-0.077 2.731-0.221l-0.139-0.808-0.003-0.001zM2.023 9.488c0.493-1.1 1.136-2.131 1.9-3.069l-0.627-0.543c-0.813 0.993-1.488 2.076-2.011 3.236l-0.013 0.028 0.751 0.348zM27.376 24.28c-0.816 0.868-1.747 1.639-2.76 2.304l0.452 0.687c1.075-0.699 2.055-1.52 2.92-2.439l-0.612-0.552zM1.293 19.401c-0.251-1.061-0.391-2.235-0.431-3.561h-0.821c0.040 1.428 0.193 2.673 0.46 3.791l0.792-0.229zM0.717 10.567c-0.396 1.213-0.624 2.471-0.68 3.751l0.82 0.040c0.056-1.231 0.279-2.421 0.649-3.549l-0.789-0.241zM6.316 28.247l-0.787-2.42c-0.027-0.080-0.075-0.145-0.14-0.196-0.309-0.243-0.599-0.488-0.88-0.744l-0.563 0.595c0.259 0.245 0.544 0.483 0.839 0.721l0.748 2.289 0.783-0.245zM3.509 23.857c-0.788-0.921-1.383-1.932-1.807-3.087l-0.764 0.305c0.055 0.143 0.111 0.288 0.168 0.429 0.44 1.061 1.028 2.012 1.789 2.9l0.613-0.548z"></path>
</svg>
