<!-- Generated by IcoMoon.io -->
<svg version="1.1" xmlns="http://www.w3.org/2000/svg" width="80" height="80" viewBox="0 0 80 80">
<title>cloud-check</title>
<path fill="#0c0" d="M69.708 40.195c0.191-0.868 0.292-1.769 0.292-2.695 0-6.904-5.596-12.5-12.5-12.5-1.111 0-2.189 0.146-3.214 0.418-1.937-6.043-7.601-10.418-14.286-10.418-6.824 0-12.582 4.557-14.4 10.795-1.777-0.517-3.656-0.795-5.6-0.795-11.046 0-20 8.954-20 20s8.954 20 20 20h47.5c6.904 0 12.5-5.596 12.5-12.5 0-6.15-4.442-11.262-10.292-12.305zM32.5 60l-12.5-12.5 5-5 7.5 7.5 17.5-17.5 5 5-22.5 22.5z"></path>
</svg>
