<!-- Generated by IcoMoon.io -->
<svg version="1.1" xmlns="http://www.w3.org/2000/svg" width="64" height="64" viewBox="0 0 64 64">
<title>angellist</title>
<path fill="#0c0" d="M43.907 26.544c1.96-5.333 3.493-9.733 4.595-13.211 1.093-3.467 1.648-5.6 1.648-6.4 0-0.84-0.187-1.504-0.56-1.968-0.36-0.464-0.864-0.704-1.512-0.704-0.827 0-1.68 0.68-2.507 2.040-0.853 1.36-1.787 3.557-2.827 6.579l-4.4 12.693 5.52 0.971zM38.059 38.371c-1.264-0.080-2.461-0.213-3.584-0.4-1.12-0.213-2.213-0.507-3.243-0.88 0.472 0.933 0.893 1.867 1.259 2.8 0.368 0.933 0.667 1.84 0.907 2.773 0.693-0.88 1.44-1.68 2.213-2.4 0.779-0.72 1.6-1.36 2.44-1.92zM33.093 25.037l-4.747-13.707c-1.237-3.493-2.187-5.76-2.867-6.853-0.667-1.067-1.4-1.6-2.192-1.6-0.613 0-1.112 0.213-1.493 0.693-0.384 0.48-0.571 1.093-0.571 1.867 0 1.333 0.507 3.68 1.52 7.040 1.013 3.333 2.56 7.707 4.613 13.147 0.16-0.32 0.427-0.56 0.747-0.693s0.747-0.213 1.307-0.213c0.16 0 0.507 0.027 1.040 0.027 0.507 0.053 1.387 0.107 2.587 0.24zM28.779 46.264c0.501 0 0.96-0.24 1.36-0.693 0.4-0.48 0.624-0.96 0.624-1.467 0-0.56-0.4-1.867-1.205-3.893-0.8-2.027-1.813-4.027-3.013-6-0.88-1.467-1.747-2.587-2.587-3.333-0.864-0.747-1.667-1.12-2.427-1.12-0.613 0-1.291 0.373-2.045 1.173-0.747 0.773-1.12 1.493-1.12 2.16 0 0.693 0.373 1.76 1.101 3.147 0.733 1.413 1.72 2.907 2.944 4.48 1.293 1.733 2.507 3.067 3.653 4.027 1.141 0.96 2.053 1.44 2.72 1.44h-0.005zM15.592 45.197c0.416 0.507 0.987 1.227 1.723 2.187 1.928 2.667 3.72 4 5.36 4 0.56 0 1.059-0.187 1.501-0.533 0.437-0.373 0.659-0.72 0.659-1.12 0-0.453-0.293-1.173-0.88-2.213-0.592-1.040-1.397-2.187-2.419-3.467-1.173-1.493-2.147-2.587-2.928-3.28-0.768-0.693-1.4-1.040-1.859-1.040-1.013 0-1.973 0.56-2.827 1.653-0.853 1.067-1.28 2.4-1.28 3.893 0 1.2 0.32 2.533 0.933 4.027 0.613 1.467 1.467 2.96 2.613 4.453 1.733 2.32 3.893 4.080 6.453 5.333 2.56 1.227 5.413 1.84 8.507 1.84 5.707 0 10.507-2.133 14.347-6.4 3.867-4.267 5.787-9.6 5.787-16.027 0-1.973-0.133-3.547-0.427-4.693s-0.773-2-1.44-2.533c-1.2-1.013-3.547-1.893-7.013-2.693s-7.093-1.2-10.88-1.2c-1.040 0-1.813 0.187-2.24 0.533s-0.64 0.96-0.64 1.795c0 2 1.12 3.44 3.36 4.336 2.24 0.907 5.84 1.36 10.827 1.36h1.803c0.4 0 0.747 0.16 0.987 0.464 0.24 0.293 0.4 0.747 0.48 1.387-0.507 0.453-1.52 0.987-3.077 1.6-1.573 0.587-2.747 1.2-3.573 1.773-1.76 1.291-3.173 2.827-4.24 4.597-1.067 1.76-1.6 3.44-1.6 5.021 0 0.96 0.229 2.133 0.688 3.493 0.453 1.36 0.693 2.195 0.693 2.533v0.293l-0.080 0.4c-1.28-0.080-2.293-0.835-3.040-2.267-0.765-1.413-1.12-3.307-1.12-5.68v-0.4c-0.24 0.2-0.469 0.36-0.693 0.44-0.229 0.091-0.475 0.133-0.72 0.133-0.267 0-0.528-0.016-0.773-0.053-0.24-0.043-0.48-0.107-0.773-0.2 0.080 0.32 0.152 0.64 0.203 0.941 0.027 0.32 0.053 0.56 0.053 0.72 0 1.083-0.427 2.027-1.28 2.8-0.853 0.765-1.867 1.147-3.040 1.147-1.84 0-3.725-0.907-5.627-2.693-1.907-1.797-2.853-3.573-2.853-5.293 0-0.32 0.040-0.613 0.107-0.861s0.2-0.453 0.373-0.64zM47.077 27.251c2.627 0.48 4.493 1.6 5.573 3.333 1.093 1.707 1.627 4.427 1.627 8.16 0 7.387-2.208 13.413-6.645 18.107-4.445 4.693-10.125 7.067-17.032 7.067-2.728 0-5.376-0.507-7.936-1.493-2.587-0.987-4.773-2.373-6.64-4.107-2.107-1.947-3.707-3.973-4.747-6.133-1.067-2.16-1.6-4.373-1.6-6.613 0-2.533 0.533-4.48 1.6-5.84 1.067-1.387 2.8-2.32 5.147-2.827-0.453-1.040-0.773-1.893-0.96-2.613-0.213-0.72-0.32-1.253-0.32-1.627 0-1.333 0.693-2.693 2.080-4.053 1.387-1.387 2.693-2.080 3.92-2.080 0.507 0 1.067 0.080 1.653 0.293 0.587 0.187 1.253 0.507 2 0.933-2.16-6.267-3.813-11.2-4.827-14.667-1.040-3.493-1.547-5.867-1.547-7.2 0-1.813 0.453-3.28 1.387-4.347 0.96-1.067 2.24-1.6 3.84-1.6 2.747 0 6.24 6.16 10.48 18.461 0.747 2.107 1.28 3.733 1.68 4.88l1.36-3.875c4.24-12.133 7.867-18.213 10.933-18.213 1.493 0 2.693 0.507 3.573 1.52 0.88 1.021 1.333 2.365 1.333 4.061 0 1.28-0.507 3.627-1.493 7.067-0.979 3.413-2.453 7.893-4.453 13.44z"></path>
</svg>
